<svg id="Layer" xmlns="http://www.w3.org/2000/svg" width="147.25" height="67.5" viewBox="0 0 2356 1080">
  <circle cx="404.5" cy="539.5" r="288.5" fill="#623cea"/>
  <path d="M611.4909,550.2213q-.0146-1.1226-.0583-2.2454c-.01-.7581-.0389-1.5066-.0778-2.2551-.0194-.6609-.0486-1.3122-.0875-1.9731-.01-.243-.0194-.4958-.0388-.7388-.0389-.8068-.0875-1.6135-.1458-2.4106-.068-1.1373-.1556-2.2745-.2527-3.4117-.0681-.8457-.1459-1.7011-.2236-2.5467-.0389-.4569-.0875-.9235-.1361-1.38q-.2625-2.6682-.6123-5.3072c-.0681-.5833-.1459-1.1664-.2237-1.75-.0971-.7194-.204-1.4386-.311-2.1677-.0194-.1652-.0486-.34-.0777-.5054q-.2334-1.5747-.4958-3.1494v-.01c-.1846-1.0984-.3693-2.2065-.5735-3.2952-.1555-.8748-.3207-1.74-.4957-2.605-.1069-.5638-.2138-1.1275-.34-1.701-.1652-.8456-.34-1.6913-.5249-2.5273-.2236-1.0011-.4471-1.9926-.68-2.9937-.2041-.8943-.4277-1.7983-.6512-2.6925-.0778-.35-.1653-.69-.2528-1.03-.2235-.8942-.4568-1.7885-.7-2.673,0-.0195-.01-.0486-.01-.0681-.2722-.9817-.5347-1.9635-.8165-2.9452a2.1224,2.1224,0,0,0-.0681-.2333c-.3013-1.06-.6124-2.119-.9331-3.1688-.2527-.8359-.5054-1.6718-.7776-2.5077q-.9769-3.12-2.07-6.2015c-.2236-.6512-.4569-1.2928-.69-1.9246-.107-.2916-.2042-.5735-.3111-.8651-.1944-.5346-.3985-1.06-.5929-1.5844-.9429-2.4786-1.9246-4.9281-2.955-7.3679-.3013-.7095-.6026-1.4191-.9137-2.1287-.0777-.1847-.1652-.3791-.2527-.5735-.2721-.6318-.5637-1.2733-.8456-1.9051q-.51-1.1373-1.05-2.2746c-.1653-.35-.3208-.7-.4957-1.05-.3208-.7-.661-1.4-1.0012-2.09q-1.983-4.0679-4.1408-8.0386c-.36-.6609-.7193-1.3316-1.0984-1.9926q-.4081-.729-.8165-1.458A206.634,206.634,0,0,0,451.1568,645.7511q0,6.8672.4471,13.6373-7.2318-5.8758-14.9885-11.1a127.3732,127.3732,0,0,1-217.6442-6.1237c-.0765-.1331-.1513-.27-.2266-.405a79.2372,79.2372,0,0,0-13.0512-145.31,207.8355,207.8355,0,0,0,.0681,116.0685c.0778.2819.1555.5735.243.8554q.4812,1.6038.9915,3.2077,1.2538,3.9949,2.673,7.9122c.0389.1166.0778.2333.1264.35a1.1371,1.1371,0,0,0,.068.1944c.35.9234.71,1.8274,1.0887,2.7314,0,.01,0,.01.01.0194a76.6412,76.6412,0,0,1,3.4215,7.5526.0746.0746,0,0,0,.0194.0486q1.2976,2.6535,2.7314,5.2294c.0292.0486.0583.1069.0875.1556.2138.38.4222.7577.6337,1.1326.1065.2219.2079.4437.3188.6656.8068,1.73,1.6525,3.46,2.5176,5.1614.5443,1.0886,1.1081,2.1676,1.6718,3.2368.486.904.9721,1.8177,1.4678,2.7119.6707,1.2248,1.3608,2.45,2.0509,3.6548q1.8226,3.1493,3.7326,6.2209,1.1226,1.7934,2.2551,3.5381c.5637.8554,1.1275,1.7011,1.6913,2.5467.0486.0778.0972.1458.1458.2236.6318.9234,1.2636,1.8468,1.9051,2.76q1.0353,1.4873,2.1,2.9452c.71.9818,1.4191,1.9441,2.1481,2.9064.6221.8262,1.2442,1.6427,1.876,2.4592.9429,1.2053,1.8955,2.4106,2.8577,3.5964.661.8165,1.3317,1.633,2.0121,2.44.7193.8651,1.4581,1.7205,2.1968,2.5758.0486.0584.0972.1167.1458.1653.7776.8942,1.565,1.7885,2.3523,2.673l.068.0681c.7874.8845,1.5941,1.7593,2.4009,2.6342.8262.8747,1.6524,1.75,2.4883,2.6147s1.6719,1.73,2.5273,2.5758c.7776.7873,1.565,1.5552,2.3523,2.3231,1.04,1.0109,2.08,2.0024,3.14,2.9938.7776.7193,1.5649,1.4386,2.3522,2.1482q1.0645.9769,2.158,1.9246c.34.3013.68.6026,1.03.8942.7485.6513,1.4969,1.2928,2.2551,1.9246q1.3413,1.1373,2.7119,2.2454a1.3093,1.3093,0,0,0,.1361.1069c.8456.69,1.6913,1.3706,2.5467,2.0412,1.1275.8846,2.2745,1.7594,3.4215,2.6342.6707.5054,1.351,1.0109,2.0315,1.5066.33.243.6609.4763.9914.7193.8166.6027,1.6427,1.1859,2.4787,1.7691.9817.7,1.9829,1.38,2.9841,2.0607q2.2308,1.5017,4.52,2.9646c.622.4082,1.2441.7971,1.8662,1.1859l.3791.2333c.7971.4957,1.5941.9817,2.3911,1.4677,1.04.6221,2.08,1.2442,3.13,1.8468.8845.5152,1.7788,1.0206,2.6827,1.5261.1555.0875.3208.175.4763.2625,1.06.5929,2.1287,1.1761,3.1979,1.74.8359.4471,1.6816.8942,2.5273,1.3219.136.0778.2721.1458.4082.2139.486.2527.9623.4957,1.4483.729.7.36,1.4.7095,2.1093,1.05.972.4763,1.944.9429,2.9258,1.4.35.1653.7.3305,1.0595.4957.729.3306,1.458.6707,2.1968,1.0013q2.3765,1.0642,4.8017,2.07c.69.2915,1.38.5734,2.07.8553.2624.1069.5249.2138.797.3208q1.4.5539,2.8286,1.1081c.1264.0486.2624.0972.4083.1555,1.04.3888,2.09.7776,3.14,1.1567,1.1567.418,2.3134.8262,3.48,1.2247.972.3305,1.944.661,2.9258.9818.3208.0972.6512.2041.972.311.9915.3111,1.9829.6221,2.9841.9234.0777.0292.1555.0486.243.0778,1.03.3013,2.0607.6027,3.1007.904.33.0972.6707.1847,1.0109.2819.9234.2624,1.8566.5054,2.79.7582.0875.0194.1749.0485.2624.0679,1.1082.2917,2.2259.5736,3.3438.8458.1555.0388.3208.0777.4763.1166,1.0983.2624,2.2065.5249,3.3145.7679,1.1956.2722,2.3815.5248,3.5868.7678.0389.01.0777.0195.1263.0292,1.1956.243,2.3912.4763,3.6062.7a.5993.5993,0,0,0,.0681.0195c1.215.2236,2.44.4374,3.6644.6415,1.4678.2527,2.9355.4763,4.413.69.6415.0972,1.2831.1846,1.9246.2722.5443.0777,1.0984.1457,1.6524.2138,1.3414.1749,2.6925.33,4.0339.4665.8068.0973,1.6136.175,2.43.2528.2818.0291.5734.0583.865.0777.9623.0972,1.9343.175,2.9063.2528.0584,0,.1167.01.1751.01.4762.0389.9525.068,1.4288.0972q1.108.0874,2.2162.1458.5832.0437,1.1664.0583c1.2539.0777,2.5078.1264,3.7617.1652,1.04.0486,2.09.0778,3.13.0876.2138.01.4277.0194.6415.01,1.1762.0292,2.3621.0389,3.5479.0389.8942,0,1.7788-.01,2.6731-.0194.7095-.01,1.4288-.0195,2.1384-.0389.5443-.01,1.0887-.0194,1.633-.0486,1.5455-.0389,3.091-.1069,4.6268-.1944.6026-.0194,1.2053-.0583,1.8177-.0972.2138-.01.4276-.0194.6415-.0389.5735-.0388,1.1567-.0778,1.73-.1166q6.6486-.4812,13.1513-1.39c.7388-.0972,1.4678-.2041,2.2065-.311q3.6742-.54,7.31-1.2248c.661-.1166,1.3317-.243,1.9926-.3791,4.5588-.8845,9.0592-1.9343,13.5014-3.12.5443-.1361,1.0789-.282,1.6135-.4374q1.4873-.4083,2.9743-.8457.9333-.2625,1.8663-.5541,1.5455-.4665,3.0911-.9622c.486-.1459.9623-.3014,1.4483-.4667q4.3449-1.4287,8.6023-3.0326,8.063-3.0472,15.7855-6.7361.9624-.4519,1.9247-.9331c.4082-.1944.8067-.3888,1.2052-.593.7-.34,1.4-.7,2.1-1.0594q2.2308-1.1373,4.4226-2.3329c.7291-.3888,1.4581-.7971,2.1871-1.2053,1.0886-.6026,2.1676-1.215,3.2465-1.8469.1361-.0777.2625-.1554.3985-.2332.6319-.3694,1.2637-.7484,1.8955-1.1275q3.31-1.983,6.5514-4.1117c.6609-.418,1.3122-.8553,1.9635-1.2927,1.0886-.7193,2.1675-1.4581,3.2368-2.2065.8554-.593,1.701-1.1956,2.5369-1.7983a2.4122,2.4122,0,0,0,.2528-.1846c.8554-.6124,1.7107-1.2442,2.5564-1.876.8942-.6513,1.7691-1.322,2.6438-2.0024.768-.5832,1.5358-1.1859,2.294-1.7885,1.0692-.8457,2.119-1.701,3.1688-2.5564.7582-.6319,1.5163-1.2636,2.2648-1.9052q5.1177-4.3449,9.9437-9.02c.661-.6318,1.322-1.283,1.9732-1.9343.1652-.1555.3305-.3208.486-.4763.71-.71,1.4095-1.4191,2.1-2.1384q1.2539-1.2831,2.4786-2.5953c.7-.729,1.38-1.4775,2.0607-2.2259.6027-.6513,1.1956-1.3122,1.7885-1.9829.0194-.0292.0486-.0486.068-.0778.418-.4763.8457-.9526,1.2442-1.4288.4374-.486.8651-.9818,1.2831-1.4775.6026-.7,1.1956-1.4,1.7788-2.1093.9039-1.079,1.7982-2.1773,2.673-3.2757.5443-.68,1.0887-1.37,1.6233-2.0607.797-1.03,1.5844-2.0607,2.3717-3.1007.6026-.8165,1.215-1.633,1.808-2.4689.5929-.8165,1.1858-1.6427,1.769-2.4689l.2916-.4083c.5832-.8457,1.1762-1.701,1.75-2.5564.5248-.7679,1.04-1.5455,1.5454-2.3134.4472-.68.8846-1.3608,1.322-2.0412s.8748-1.3608,1.2928-2.0413c.4568-.729.904-1.4483,1.3511-2.1773.5346-.8845,1.0595-1.769,1.5844-2.6536a.92.92,0,0,0,.0486-.0972c.4568-.7679.9039-1.5358,1.3414-2.3134.34-.6026.68-1.1956,1.0109-1.7982.33-.593.661-1.1956.9817-1.7885.3985-.7388.797-1.4775,1.1859-2.2162.3887-.729.7776-1.4678,1.1469-2.2065.3889-.7387.7582-1.4872,1.1276-2.2356q1.1226-2.2455,2.1773-4.52c.2138-.4472.4277-.904.6318-1.3608.35-.7582.7-1.5261,1.03-2.294.3694-.8165.729-1.6427,1.0693-2.4689.1749-.3986.35-.7971.5151-1.1956.35-.836.7-1.6719,1.04-2.5175.2916-.7193.5832-1.4483.8651-2.1676.2138-.5443.4277-1.0887.6318-1.633q1.75-4.5928,3.2951-9.2828c.3013-.9331.6027-1.876.8943-2.8188.01-.0389.0291-.0778.0389-.1166.3208-1.04.6415-2.09.9428-3.14.2722-.9234.5443-1.8565.7971-2.79.2332-.8164.4471-1.6232.6609-2.44.1361-.4762.2528-.9525.3791-1.4288.0875-.34.175-.6707.2528-1.0109.1944-.7387.3693-1.4677.5443-2.2162.2333-.972.4665-1.944.68-2.9258.0583-.2527.1167-.4957.1652-.7484q.2042-.8748.3791-1.75c.0972-.447.1945-.8942.2819-1.3413.0875-.3985.1652-.7874.243-1.1859.1264-.6221.243-1.2442.36-1.876.0486-.2235.0876-.4568.1264-.69.1652-.8554.3208-1.7108.4569-2.5662.0486-.2235.0777-.4373.1069-.6512.1847-1.05.36-2.09.5151-3.1493a.1225.1225,0,0,0,.01-.0583c.1749-1.0984.3305-2.2065.4762-3.3146.0973-.71.1945-1.4289.282-2.1384.0971-.7582.1847-1.5164.2721-2.2843.1361-1.1178.2527-2.2356.36-3.3534.0876-.8943.1653-1.7886.2431-2.6925.0777-.9234.1555-1.8469.2138-2.78.0292-.3791.0583-.7679.0875-1.1469.0583-.8943.1069-1.7886.1555-2.6828.0583-1.03.0972-2.051.1361-3.0814.0292-.7.0583-1.4.068-2.1092q.0293-.627.0292-1.2539c.02-.5638.0291-1.1373.0389-1.7108.01-.972.0194-1.9343.0194-2.9063C611.54,552.9916,611.53,551.6016,611.4909,550.2213Z" fill="#fffbfe"/>
  <g>
    <path d="M1220.8135,330.2735l-14.3672,80.8173h-171.213l-15.5646,90.3952h128.11L1133.4108,579.31H1005.3015L975.3686,750.5221H873l74.2318-420.2486Z" fill="#623cea"/>
    <path d="M1377.0583,330.2735l-74.2319,420.2486H1200.4579L1274.69,330.2735Z" fill="#623cea"/>
    <path d="M1709.0066,350.9267Q1751.21,371.58,1773.66,408.9953q22.4488,37.4205,22.4488,87.7014,0,17.37-4.19,43.7014-10.7754,61.6656-46.3957,109.5522-35.6226,47.9008-90.3952,74.2324-54.7765,26.3477-120.6274,26.3394H1377.0571l74.2319-420.2486h157.4446Q1666.7927,330.2735,1709.0066,350.9267Zm-69.1438,279.8666q38.3046-32.3262,47.8913-90.3952,2.9883-17.9592,2.9936-29.9324,0-44.2953-26.9393-68.545-26.9392-24.2451-76.6267-24.245h-49.0888L1494.99,663.12h48.49Q1601.5413,663.12,1639.8628,630.7933Z" fill="#623cea"/>
    <path d="M1918.5266,732.5625a155.1822,155.1822,0,0,1-62.559-62.2578q-22.1547-40.1007-22.1494-92.192,0-73.6331,31.7279-131.4028,31.7238-57.7641,88.3-90.0958,56.5729-32.327,128.41-32.3273,53.8786,0,94.5863,21.8507,40.7029,21.86,62.8572,61.6609,22.1406,39.819,22.1506,91.2933,0,73.633-31.7279,132.0009-31.738,58.3691-88.6,90.9934-56.881,32.6378-129.3079,32.6272Q1958.9249,754.7132,1918.5266,732.5625Zm178.6948-92.7895q29.9277-20.3443,46.3956-54.776,16.458-34.4173,16.4627-74.5313,0-43.1022-23.9456-67.6469-23.951-24.54-67.0483-24.5444-39.5107,0-69.7425,20.3538-30.2358,20.3586-46.6938,54.1774-16.4721,33.8281-16.4639,74.5318,0,43.1024,23.9468,67.9458,23.9351,24.8481,67.647,24.8443Q2067.2885,660.1275,2097.2214,639.773Z" fill="#623cea"/>
  </g>
</svg>
