<svg width="108px" height="74px" viewBox="0 0 108 74" version="1.1" focusable="false" xmlns="http://www.w3.org/2000/svg" xmlns:xlink="http://www.w3.org/1999/xlink"><defs><rect id="path-1" x="0" y="0" width="18" height="18"></rect><rect id="path-2" x="0" y="0" width="18" height="18"></rect></defs><g id="Page-1" stroke="none" stroke-width="1" fill="none" fill-rule="evenodd"><g id="L-to-R" transform="translate(-58.000000, -365.000000)"><g id="Group-11" transform="translate(58.000000, 236.000000)"><g id="Group-15" transform="translate(0.000000, 129.000000)"><path d="M0,0.990129262 C0,0.44329597 0.446521291,0 1.00019413,0 L106.999806,0 C107.552198,0 108,0.453369457 108,0.990129262 L108,73.0098707 C108,73.556704 107.553479,74 106.999806,74 L1.00019413,74 C0.447802166,74 0,73.5466305 0,73.0098707 L0,0.990129262 Z" id="Rectangle-47"></path><g id="Group-21" transform="translate(8.000000, 26.000000)"><g id="Rectangle"><rect stroke-opacity="0.2" stroke="#979797" stroke-width="1" x="0.5" y="0.5" width="17" height="17"></rect></g><g><polygon id="Rectangle-624" fill="#666666" fill-rule="evenodd" points="7.10037841 8.28357339 8.23167991 9.42369344 10.8010893 5.72727273 14.4755245 11.4545455 4.90909091 11.4545455"></polygon><circle id="Oval-10" fill="#666666" fill-rule="evenodd" cx="6.73426573" cy="5.91608392" r="1.00699301"></circle></g></g><rect id="Rectangle-122" fill="#9E9E9E" x="30" y="28" width="15" height="2"></rect><rect id="Rectangle-122" fill="#E0E0E0" x="30" y="36" width="20" height="1"></rect><rect id="Rectangle-122" fill="#E0E0E0" x="30" y="41" width="20" height="1"></rect><g id="Group-21" transform="translate(57.000000, 26.000000)"><g id="Rectangle"><rect stroke-opacity="0.2" stroke="#979797" stroke-width="1" x="0.5" y="0.5" width="17" height="17"></rect></g><g><polygon id="Rectangle-624" fill="#666666" fill-rule="evenodd" points="7.10037841 8.28357339 8.23167991 9.42369344 10.8010893 5.72727273 14.4755245 11.4545455 4.90909091 11.4545455"></polygon><circle id="Oval-10" fill="#666666" fill-rule="evenodd" cx="6.73426573" cy="5.91608392" r="1.00699301"></circle></g></g><rect id="Rectangle-122" fill="#9E9E9E" x="80" y="28" width="15" height="2"></rect><rect id="Rectangle-122" fill="#E0E0E0" x="80" y="36" width="20" height="1"></rect><rect id="Rectangle-122" fill="#E0E0E0" x="80" y="41" width="20" height="1"></rect></g></g></g></g></svg>